<mxfile host="app.diagrams.net" modified="2020-11-21T15:15:01.224Z" agent="5.0 (Macintosh; Intel Mac OS X 10_15_7) AppleWebKit/605.1.15 (KHTML, like Gecko) Version/14.0 Safari/605.1.15" etag="BnfzgbW5pppTqM3VyazQ" version="13.10.0" type="github">
  <diagram id="R4cPaEtcHPXe7eK97aWt" name="Page-1">
    <mxGraphModel dx="1010" dy="1149" grid="1" gridSize="10" guides="1" tooltips="1" connect="1" arrows="1" fold="1" page="1" pageScale="1" pageWidth="827" pageHeight="1169" math="0" shadow="0">
      <root>
        <mxCell id="0" />
        <mxCell id="1" parent="0" />
        <mxCell id="5YZSUBnvmhxX3WKnV-cV-1" value="NO" style="edgeStyle=orthogonalEdgeStyle;rounded=0;orthogonalLoop=1;jettySize=auto;html=1;exitX=0.5;exitY=1;exitDx=0;exitDy=0;entryX=0.5;entryY=0;entryDx=0;entryDy=0;fontSize=14;" edge="1" parent="1" source="5YZSUBnvmhxX3WKnV-cV-3" target="5YZSUBnvmhxX3WKnV-cV-7">
          <mxGeometry relative="1" as="geometry" />
        </mxCell>
        <mxCell id="5YZSUBnvmhxX3WKnV-cV-2" value="YES" style="edgeStyle=orthogonalEdgeStyle;rounded=0;orthogonalLoop=1;jettySize=auto;html=1;exitX=1;exitY=0.5;exitDx=0;exitDy=0;fontSize=14;" edge="1" parent="1" source="5YZSUBnvmhxX3WKnV-cV-3" target="5YZSUBnvmhxX3WKnV-cV-10">
          <mxGeometry relative="1" as="geometry">
            <mxPoint x="590" y="275" as="targetPoint" />
          </mxGeometry>
        </mxCell>
        <mxCell id="5YZSUBnvmhxX3WKnV-cV-3" value="&lt;font style=&quot;font-size: 16px&quot;&gt;built-in commend 인가&lt;/font&gt;" style="rhombus;whiteSpace=wrap;html=1;" vertex="1" parent="1">
          <mxGeometry x="280" y="240" width="230" height="70" as="geometry" />
        </mxCell>
        <mxCell id="5YZSUBnvmhxX3WKnV-cV-4" value="&lt;font style=&quot;font-size: 18px&quot;&gt;&amp;nbsp;명령어 입력&lt;/font&gt;" style="rounded=1;whiteSpace=wrap;html=1;" vertex="1" parent="1">
          <mxGeometry x="300" y="100" width="190" height="60" as="geometry" />
        </mxCell>
        <mxCell id="5YZSUBnvmhxX3WKnV-cV-5" value="" style="endArrow=classic;html=1;exitX=0.5;exitY=1;exitDx=0;exitDy=0;entryX=0.5;entryY=0;entryDx=0;entryDy=0;" edge="1" parent="1" source="5YZSUBnvmhxX3WKnV-cV-4" target="5YZSUBnvmhxX3WKnV-cV-3">
          <mxGeometry width="50" height="50" relative="1" as="geometry">
            <mxPoint x="485" y="710" as="sourcePoint" />
            <mxPoint x="535" y="660" as="targetPoint" />
          </mxGeometry>
        </mxCell>
        <mxCell id="5YZSUBnvmhxX3WKnV-cV-6" value="execve로 실행 파일을 불러온다.&lt;br&gt;env도 같이 넘겨준다" style="rounded=1;whiteSpace=wrap;html=1;fontSize=14;" vertex="1" parent="1">
          <mxGeometry x="550" y="510" width="221" height="60" as="geometry" />
        </mxCell>
        <mxCell id="5YZSUBnvmhxX3WKnV-cV-12" value="부모" style="edgeStyle=orthogonalEdgeStyle;rounded=0;orthogonalLoop=1;jettySize=auto;html=1;entryX=0.5;entryY=0;entryDx=0;entryDy=0;" edge="1" parent="1" source="5YZSUBnvmhxX3WKnV-cV-7" target="5YZSUBnvmhxX3WKnV-cV-8">
          <mxGeometry relative="1" as="geometry" />
        </mxCell>
        <mxCell id="5YZSUBnvmhxX3WKnV-cV-7" value="fork()" style="rounded=1;whiteSpace=wrap;html=1;fontSize=18;" vertex="1" parent="1">
          <mxGeometry x="335" y="370" width="120" height="60" as="geometry" />
        </mxCell>
        <mxCell id="5YZSUBnvmhxX3WKnV-cV-13" value="YES" style="edgeStyle=orthogonalEdgeStyle;rounded=0;orthogonalLoop=1;jettySize=auto;html=1;entryX=0;entryY=0.5;entryDx=0;entryDy=0;" edge="1" parent="1" source="5YZSUBnvmhxX3WKnV-cV-8" target="5YZSUBnvmhxX3WKnV-cV-4">
          <mxGeometry relative="1" as="geometry">
            <mxPoint x="240" y="120" as="targetPoint" />
            <Array as="points">
              <mxPoint x="250" y="525" />
              <mxPoint x="250" y="130" />
            </Array>
          </mxGeometry>
        </mxCell>
        <mxCell id="5YZSUBnvmhxX3WKnV-cV-15" value="NO" style="edgeStyle=orthogonalEdgeStyle;rounded=0;orthogonalLoop=1;jettySize=auto;html=1;entryX=0.5;entryY=0;entryDx=0;entryDy=0;fontSize=12;" edge="1" parent="1" source="5YZSUBnvmhxX3WKnV-cV-8" target="5YZSUBnvmhxX3WKnV-cV-14">
          <mxGeometry relative="1" as="geometry" />
        </mxCell>
        <mxCell id="5YZSUBnvmhxX3WKnV-cV-8" value="&lt;font size=&quot;3&quot;&gt;백그라운드 프로세스인가?&lt;/font&gt;" style="rhombus;whiteSpace=wrap;html=1;" vertex="1" parent="1">
          <mxGeometry x="280" y="490" width="230" height="70" as="geometry" />
        </mxCell>
        <mxCell id="5YZSUBnvmhxX3WKnV-cV-9" value="자식" style="endArrow=classic;html=1;fontSize=12;exitX=1;exitY=0.5;exitDx=0;exitDy=0;entryX=0.5;entryY=0;entryDx=0;entryDy=0;" edge="1" parent="1" source="5YZSUBnvmhxX3WKnV-cV-7" target="5YZSUBnvmhxX3WKnV-cV-6">
          <mxGeometry width="50" height="50" relative="1" as="geometry">
            <mxPoint x="640" y="710" as="sourcePoint" />
            <mxPoint x="690" y="660" as="targetPoint" />
            <Array as="points">
              <mxPoint x="660" y="400" />
            </Array>
          </mxGeometry>
        </mxCell>
        <mxCell id="5YZSUBnvmhxX3WKnV-cV-10" value="command 실행" style="rounded=1;whiteSpace=wrap;html=1;fontSize=14;" vertex="1" parent="1">
          <mxGeometry x="600.5" y="245" width="120" height="60" as="geometry" />
        </mxCell>
        <mxCell id="5YZSUBnvmhxX3WKnV-cV-16" style="edgeStyle=orthogonalEdgeStyle;rounded=0;orthogonalLoop=1;jettySize=auto;html=1;fontSize=12;" edge="1" parent="1" source="5YZSUBnvmhxX3WKnV-cV-14">
          <mxGeometry relative="1" as="geometry">
            <mxPoint x="250" y="520" as="targetPoint" />
          </mxGeometry>
        </mxCell>
        <mxCell id="5YZSUBnvmhxX3WKnV-cV-14" value="자식 끝날 때까지 기다리기" style="rounded=1;whiteSpace=wrap;html=1;fontSize=12;" vertex="1" parent="1">
          <mxGeometry x="322.5" y="610" width="145" height="60" as="geometry" />
        </mxCell>
      </root>
    </mxGraphModel>
  </diagram>
</mxfile>
